<svg width="396" height="114" viewBox="0 0 396 114" fill="none" xmlns="http://www.w3.org/2000/svg">
<path d="M4.33478 24.268H44.6548V32.08H28.3588V85H20.2108V32.08H4.33478V24.268ZM64.9034 63.496C64.9034 66.24 65.5474 68.704 66.8354 70.888C68.1794 73.016 69.9434 74.696 72.1274 75.928C74.3114 77.16 76.7754 77.776 79.5194 77.776C82.3754 77.776 84.9234 77.16 87.1634 75.928C89.4034 74.696 91.1674 73.016 92.4554 70.888C93.7434 68.704 94.3874 66.24 94.3874 63.496V24.268H102.367V63.748C102.367 68.172 101.331 72.036 99.2594 75.34C97.2434 78.644 94.4994 81.192 91.0274 82.984C87.6114 84.776 83.7754 85.672 79.5194 85.672C75.2634 85.672 71.4274 84.776 68.0114 82.984C64.5954 81.192 61.8794 78.644 59.8634 75.34C57.8474 72.036 56.8394 68.172 56.8394 63.748V24.268H64.9034V63.496ZM166.581 79.792C165.741 80.52 164.565 81.248 163.053 81.976C161.541 82.648 159.861 83.264 158.013 83.824C156.221 84.384 154.345 84.832 152.385 85.168C150.481 85.504 148.689 85.672 147.009 85.672C142.137 85.672 137.741 84.916 133.821 83.404C129.957 81.892 126.625 79.792 123.825 77.104C121.081 74.416 118.953 71.252 117.441 67.612C115.985 63.972 115.257 60.024 115.257 55.768C115.257 50.728 116.069 46.22 117.693 42.244C119.373 38.212 121.641 34.824 124.497 32.08C127.409 29.28 130.741 27.18 134.493 25.78C138.245 24.324 142.221 23.596 146.421 23.596C149.949 23.596 153.225 24.016 156.249 24.856C159.273 25.696 161.933 26.76 164.229 28.048L161.457 35.524C160.337 34.852 158.937 34.236 157.257 33.676C155.633 33.116 153.953 32.668 152.217 32.332C150.481 31.94 148.857 31.744 147.345 31.744C143.761 31.744 140.513 32.304 137.601 33.424C134.689 34.488 132.197 36.056 130.125 38.128C128.053 40.144 126.457 42.608 125.337 45.52C124.217 48.376 123.657 51.596 123.657 55.18C123.657 58.484 124.217 61.508 125.337 64.252C126.457 66.996 128.053 69.376 130.125 71.392C132.197 73.352 134.661 74.892 137.517 76.012C140.429 77.076 143.621 77.608 147.093 77.608C149.165 77.608 151.209 77.412 153.225 77.02C155.241 76.572 156.977 75.956 158.433 75.172V63.076H146.337V55.264H166.581V79.792ZM182.119 24.268H190.267V85H182.119V24.268ZM203.933 54.676C203.933 50.476 204.717 46.528 206.285 42.832C207.909 39.08 210.149 35.776 213.005 32.92C215.861 30.008 219.137 27.74 222.833 26.116C226.585 24.436 230.617 23.596 234.929 23.596C239.185 23.596 243.161 24.436 246.857 26.116C250.609 27.74 253.913 30.008 256.769 32.92C259.681 35.776 261.949 39.08 263.573 42.832C265.197 46.528 266.009 50.476 266.009 54.676C266.009 58.988 265.197 63.02 263.573 66.772C261.949 70.524 259.681 73.828 256.769 76.684C253.913 79.484 250.609 81.696 246.857 83.32C243.161 84.888 239.185 85.672 234.929 85.672C230.617 85.672 226.585 84.888 222.833 83.32C219.137 81.752 215.861 79.568 213.005 76.768C210.149 73.968 207.909 70.692 206.285 66.94C204.717 63.188 203.933 59.1 203.933 54.676ZM212.333 54.76C212.333 57.952 212.921 60.948 214.097 63.748C215.273 66.492 216.897 68.928 218.969 71.056C221.041 73.184 223.449 74.864 226.193 76.096C228.937 77.272 231.905 77.86 235.097 77.86C238.233 77.86 241.173 77.272 243.917 76.096C246.661 74.864 249.041 73.184 251.057 71.056C253.073 68.928 254.669 66.492 255.845 63.748C257.021 60.948 257.609 57.924 257.609 54.676C257.609 51.484 257.021 48.488 255.845 45.688C254.669 42.832 253.045 40.34 250.973 38.212C248.901 36.084 246.493 34.432 243.749 33.256C241.005 32.024 238.065 31.408 234.929 31.408C231.737 31.408 228.769 32.024 226.025 33.256C223.281 34.488 220.873 36.168 218.801 38.296C216.729 40.424 215.133 42.916 214.013 45.772C212.893 48.572 212.333 51.568 212.333 54.76Z" fill="#0080FF"/>
<rect x="296" width="27" height="114" fill="#0080FF"/>
<rect x="333" width="26" height="114" fill="#0080FF" fill-opacity="0.65"/>
<rect x="369" width="27" height="114" fill="#0080FF" fill-opacity="0.35"/>
</svg>
